<svg width="139" height="111" viewBox="0 0 139 111" fill="none" xmlns="http://www.w3.org/2000/svg">
<path d="M132.05 6.9375H6.95C3.1123 6.9375 0 10.0442 0 13.875V97.125C0 100.956 3.1123 104.062 6.95 104.062H132.05C135.888 104.062 139 100.956 139 97.125V13.875C139 10.0442 135.888 6.9375 132.05 6.9375ZM38.225 71.0834V74.5781C38.225 75.5364 37.4475 76.3125 36.4875 76.3125H33.0125C32.0525 76.3125 31.275 75.5364 31.275 74.5781V71.0465C28.823 70.9208 26.4382 70.0666 24.4618 68.5859C23.6148 67.9506 23.5714 66.6846 24.338 65.9539L26.89 63.5237C27.4916 62.9513 28.3864 62.9253 29.0901 63.3654C29.9306 63.89 30.8841 64.1719 31.8744 64.1719H37.9796C39.3913 64.1719 40.5424 62.8884 40.5424 61.3123C40.5424 60.0224 39.7583 58.8864 38.6377 58.5525L28.8642 55.6257C24.8267 54.416 22.0054 50.5484 22.0054 46.2189C22.0054 40.9031 26.1429 36.5845 31.2728 36.4479V32.9531C31.2728 31.9949 32.0504 31.2188 33.0103 31.2188H36.4853C37.4453 31.2188 38.2228 31.9949 38.2228 32.9531V36.4847C40.6749 36.6105 43.0596 37.4625 45.036 38.9454C45.883 39.5806 45.9265 40.8467 45.1598 41.5773L42.6078 44.0076C42.0062 44.5799 41.1114 44.606 40.4077 44.1659C39.5672 43.639 38.6138 43.3594 37.6234 43.3594H31.5182C30.1065 43.3594 28.9554 44.6428 28.9554 46.2189C28.9554 47.5089 29.7395 48.6449 30.8602 48.9787L40.6336 51.9055C44.6711 53.1152 47.4924 56.9829 47.4924 61.3123C47.4924 66.6304 43.355 70.9468 38.225 71.0834ZM90.35 67.6406C90.35 68.5989 89.5725 69.375 88.6125 69.375H64.2875C63.3275 69.375 62.55 68.5989 62.55 67.6406V64.1719C62.55 63.2136 63.3275 62.4375 64.2875 62.4375H88.6125C89.5725 62.4375 90.35 63.2136 90.35 64.1719V67.6406ZM125.1 67.6406C125.1 68.5989 124.322 69.375 123.362 69.375H105.987C105.028 69.375 104.25 68.5989 104.25 67.6406V64.1719C104.25 63.2136 105.028 62.4375 105.987 62.4375H123.362C124.322 62.4375 125.1 63.2136 125.1 64.1719V67.6406ZM125.1 46.8281C125.1 47.7864 124.322 48.5625 123.362 48.5625H64.2875C63.3275 48.5625 62.55 47.7864 62.55 46.8281V43.3594C62.55 42.4011 63.3275 41.625 64.2875 41.625H123.362C124.322 41.625 125.1 42.4011 125.1 43.3594V46.8281Z" fill="#E5E5E5"/>
</svg>
