<svg width="130" height="108" viewBox="0 0 130 108" fill="none" xmlns="http://www.w3.org/2000/svg">
<path d="M127.045 25.0172L113.349 3.16406C112.125 1.20234 109.951 0 107.63 0H22.3702C20.0487 0 17.875 1.20234 16.651 3.16406L2.95457 25.0172C-4.11524 36.3023 2.15262 51.9961 15.3637 53.7891C16.3133 53.9156 17.2841 53.9789 18.2549 53.9789C24.5016 53.9789 30.0309 51.2367 33.8296 46.9969C37.6283 51.2367 43.1786 53.9789 49.4042 53.9789C55.651 53.9789 61.1802 51.2367 64.9789 46.9969C68.7776 51.2367 74.328 53.9789 80.5536 53.9789C86.8004 53.9789 92.3296 51.2367 96.1283 46.9969C99.9481 51.2367 105.477 53.9789 111.703 53.9789C112.695 53.9789 113.645 53.9156 114.594 53.7891C127.847 52.0172 134.136 36.3234 127.045 25.0172ZM111.745 60.75C109.635 60.75 107.545 60.4336 105.52 59.9484V81H24.4805V59.9484C22.4546 60.4125 20.3653 60.75 18.2549 60.75C16.9887 60.75 15.7013 60.6656 14.4562 60.4969C13.2744 60.3281 12.1137 60.0539 10.9952 59.7375V101.25C10.9952 104.984 14.013 108 17.7484 108H112.294C116.029 108 119.047 104.984 119.047 101.25V59.7375C117.907 60.075 116.768 60.3492 115.586 60.4969C114.299 60.6656 113.033 60.75 111.745 60.75Z" fill="#E5E5E5"/>
</svg>
