<svg width="21" height="21" viewBox="0 0 21 21" fill="none" xmlns="http://www.w3.org/2000/svg">
  <path
    d="M10.5 0L12.9257 2.23877L16.1767 1.66684L17.007 4.86165L20.0511 6.13814L19.0224 9.27467L20.8931 11.9943L18.3319 14.0767L18.4354 17.376L15.1549 17.7432L13.4582 20.5747L10.5 19.11L7.54181 20.5747L5.84508 17.7432L2.56463 17.376L2.66807 14.0767L0.106874 11.9943L1.97764 9.27467L0.948864 6.13814L3.993 4.86165L4.82327 1.66684L8.07428 2.23877L10.5 0Z"
    fill="#2D9CDB" />
  <path
    d="M8.73865 15C8.73865 14.8987 8.72031 14.8481 8.68363 14.8481L8.43054 14.9766C8.43054 14.9221 8.40119 14.8831 8.3425 14.8597L8.25447 14.8481C8.19578 14.8481 8.12242 14.8753 8.03439 14.9299C8.01972 14.8909 8.00138 14.8519 7.97937 14.813C7.95736 14.774 7.93902 14.739 7.92435 14.7078C7.82898 14.513 7.73361 14.2987 7.63824 14.0649C7.55021 13.8234 7.46584 13.5935 7.38514 13.3753C7.31178 13.1571 7.25309 12.9857 7.20908 12.861C7.17973 12.7597 7.14672 12.6078 7.11004 12.4052C7.07336 12.2026 7.03668 11.9455 7 11.6338C7.0807 11.6883 7.14305 11.7156 7.18707 11.7156C7.23842 11.7156 7.28611 11.6338 7.33012 11.4701C7.35213 11.5013 7.39248 11.5169 7.45117 11.5169C7.49519 11.5169 7.5282 11.5013 7.55021 11.4701L7.72627 11.1896L7.92435 11.2597H7.93535C7.95002 11.2597 7.9647 11.2519 7.97937 11.2364C7.99404 11.2208 8.01605 11.2052 8.04539 11.1896C8.10408 11.1506 8.1481 11.1312 8.17744 11.1312L8.21045 11.1429C8.39386 11.2364 8.51123 11.4078 8.56259 11.6571C8.69464 12.2494 8.82668 12.5455 8.95873 12.5455C9.09078 12.5455 9.24484 12.3974 9.42091 12.1013C9.50894 11.9532 9.59697 11.7818 9.68501 11.587C9.78038 11.3922 9.87575 11.174 9.97111 10.9325C9.98579 11.026 10.0005 11.0727 10.0151 11.0727C10.0518 11.0727 10.1142 10.9753 10.2022 10.7805C10.2976 10.5857 10.448 10.3169 10.6534 9.97403C10.7707 9.76364 10.9175 9.52597 11.0935 9.26104C11.2769 8.9961 11.4713 8.72338 11.6768 8.44286C11.8822 8.16234 12.0802 7.8974 12.271 7.64805C12.4691 7.3987 12.6451 7.18442 12.7992 7.00519C12.9532 6.82597 13.0669 6.70909 13.1403 6.65455C13.4191 6.45195 13.6392 6.25714 13.8005 6.07013C13.7932 6.12467 13.7822 6.17532 13.7675 6.22208C13.7602 6.26104 13.7565 6.28831 13.7565 6.3039C13.7565 6.33506 13.7712 6.35065 13.8005 6.35065L14.1087 6.18701V6.23377C14.1087 6.2961 14.1233 6.32727 14.1527 6.32727C14.1747 6.32727 14.2187 6.29221 14.2847 6.22208C14.3508 6.15195 14.3874 6.1013 14.3948 6.07013L14.3728 6.23377L14.7469 6L14.6589 6.21039C14.7762 6.12468 14.8606 6.08182 14.912 6.08182C14.9413 6.08182 14.9633 6.1013 14.978 6.14026C14.9927 6.17143 15 6.2026 15 6.23377C15 6.28052 14.9817 6.33506 14.945 6.3974C14.9083 6.45974 14.8606 6.53377 14.8019 6.61948C14.7579 6.68182 14.6845 6.77532 14.5818 6.9C14.4865 7.01688 14.3398 7.19221 14.1417 7.42597C13.9436 7.65195 13.6795 7.96753 13.3494 8.37273C13.2613 8.47403 13.1256 8.65325 12.9422 8.91039C12.7588 9.15974 12.5497 9.45195 12.315 9.78701C12.0876 10.1143 11.8602 10.4455 11.6327 10.7805C11.4053 11.1156 11.2036 11.4195 11.0275 11.6922C10.8514 11.9571 10.7267 12.1558 10.6534 12.2883L9.97111 13.5156C9.82439 13.7805 9.70335 13.9987 9.60798 14.1701C9.51261 14.3338 9.43925 14.4468 9.3879 14.5091C9.27785 14.6494 9.15681 14.774 9.02476 14.8831L8.92572 14.8247L8.83769 14.8831L8.73865 15Z"
    fill="#F2F2F2" />
</svg>