<svg width="131" height="105" viewBox="0 0 131 105" fill="none" xmlns="http://www.w3.org/2000/svg">
<path d="M99.892 39.2955H68.7795V50.758C68.7795 58.8841 62.1681 65.4955 54.0421 65.4955C45.916 65.4955 39.3046 58.8841 39.3046 50.758V25.868L26.0204 33.8508C22.0699 36.2047 19.6546 40.4827 19.6546 45.0677V54.7494L3.27966 64.2059C0.147949 66.0072 -0.936892 70.0191 0.884823 73.1508L17.2598 101.52C19.061 104.652 23.0729 105.716 26.2046 103.915L47.3693 91.6954H75.3295C82.555 91.6954 88.4295 85.8209 88.4295 78.5954H91.7045C95.3275 78.5954 98.2545 75.6684 98.2545 72.0455V58.9455H99.892C102.614 58.9455 104.804 56.7553 104.804 54.033V44.208C104.804 41.4857 102.614 39.2955 99.892 39.2955ZM99.892 39.2955H68.7795V50.758C68.7795 58.8841 62.1681 65.4955 54.0421 65.4955C45.916 65.4955 39.3046 58.8841 39.3046 50.758V25.868L26.0204 33.8508C22.0699 36.2047 19.6546 40.4827 19.6546 45.0677V54.7494L3.27966 64.2059C0.147949 66.0072 -0.936892 70.0191 0.884823 73.1508L17.2598 101.52C19.061 104.652 23.0729 105.716 26.2046 103.915L47.3693 91.6954H75.3295C82.555 91.6954 88.4295 85.8209 88.4295 78.5954H91.7045" fill="#4D2D2F"/>
<path d="M113.749 3.27057L130.124 31.6402C131.926 34.7719 130.861 38.7633 127.729 40.585L111.354 50.0416V44.208C111.354 37.8832 106.217 32.7455 99.892 32.7455H62.2296V50.758C62.2296 55.2816 58.5657 58.9455 54.0421 58.9455C49.5185 58.9455 45.8546 55.2816 45.8546 50.758V24.906C45.8546 22.6544 47.0009 20.5462 48.9249 19.359L55.7819 15.081C57.8697 13.7915 60.2646 13.0955 62.7208 13.0955H83.6399L104.805 0.875727C107.936 -0.92552 111.948 0.138853 113.749 3.27057Z" fill="#E5E5E5"/>
</svg>
